HIERARCHY
ROOT Hips
{
	OFFSET 0.00000 0.00000 0.00000
	CHANNELS 6 Xposition Yposition Zposition Zrotation Yrotation Xrotation 
	JOINT LHipJoint
	{
		OFFSET 0 0 0
		CHANNELS 3 Zrotation Yrotation Xrotation
		JOINT LeftHip
		{
			OFFSET 1.80322 -1.53100 0.99595
			CHANNELS 3 Zrotation Yrotation Xrotation
			JOINT LeftKnee
			{
				OFFSET 2.25177 -6.18669 0.00000
				CHANNELS 3 Zrotation Yrotation Xrotation
				JOINT LeftAnkle
				{
					OFFSET 2.26601 -6.22582 0.00000
					CHANNELS 3 Zrotation Yrotation Xrotation
					JOINT LeftToe
					{
						OFFSET 0.23701 -0.65119 2.15848
						CHANNELS 3 Zrotation Yrotation Xrotation
						End Site
						{
							OFFSET 0.00000 -0.00000 1.12949
						}
					}
				}
			}
		}
	}
	JOINT RHipJoint
	{
		OFFSET 0 0 0
		CHANNELS 3 Zrotation Yrotation Xrotation
		JOINT RightHip
		{
			OFFSET -1.93977 -1.53100 0.99595
			CHANNELS 3 Zrotation Yrotation Xrotation
			JOINT RightKnee
			{
				OFFSET -2.28036 -6.26523 0.00000
				CHANNELS 3 Zrotation Yrotation Xrotation
				JOINT RightAnkle
				{
					OFFSET -2.25490 -6.19528 0.00000
					CHANNELS 3 Zrotation Yrotation Xrotation
					JOINT RightToe
					{
						OFFSET -0.28375 -0.77960 2.23137
						CHANNELS 3 Zrotation Yrotation Xrotation
						End Site
						{
							OFFSET -0.00000 -0.00000 1.17899
						}
					}
				}
			}
		}
	}
	JOINT lowerback
	{
		OFFSET 0 0 0
		CHANNELS 3 Zrotation Yrotation Xrotation
		JOINT Chest
		{
			OFFSET -0.00088 2.12090 -0.02806
			CHANNELS 3 Zrotation Yrotation Xrotation
			JOINT Chest2
			{
				OFFSET -0.00286 2.09666 0.12974
				CHANNELS 3 Zrotation Yrotation Xrotation
				JOINT lowerneck
				{
					OFFSET 0 0 0
					CHANNELS 3 Zrotation Yrotation Xrotation
					JOINT Neck
					{
						OFFSET 0.07328 1.83526 0.07290
						CHANNELS 3 Zrotation Yrotation Xrotation
						JOINT Head
						{
							OFFSET -0.06683 1.74974 -0.49542
							CHANNELS 3 Zrotation Yrotation Xrotation
							End Site
							{
								OFFSET -0.03398 1.85163 -0.17573
							}
						}
					}
				}
				JOINT LeftCollar
				{
					OFFSET 0 0 0
					CHANNELS 3 Zrotation Yrotation Xrotation
					JOINT LeftShoulder
					{
						OFFSET 3.02113 1.18018 0.40602
CHANNELS 3 Zrotation Xrotation Yrotation
						JOINT LeftElbow
						{
OFFSET 0 -4.585380 -0.000000
CHANNELS 3 Zrotation Xrotation Yrotation
							JOINT LeftWrist
							{
OFFSET 0 -2.689350 -0.000000
CHANNELS 3 Zrotation Xrotation Yrotation
								JOINT lhand
								{
									OFFSET 0 0 0
CHANNELS 3 Zrotation Xrotation Yrotation
									JOINT LFingers
									{
OFFSET 0 -0.585060 -0.000000
CHANNELS 3 Zrotation Xrotation Yrotation
										End Site
										{
OFFSET 0 -0.471690 -0.000000
										}
									}
								}
								JOINT LThumb
								{
OFFSET 0 0.000000 0.000000
CHANNELS 3 Zrotation Xrotation Yrotation
									End Site
									{
OFFSET 0 -0.478890 0.478890
									}
								}
							}
						}
					}
				}
				JOINT RightCollar
				{
					OFFSET 0 0 0
					CHANNELS 3 Zrotation Yrotation Xrotation
					JOINT RightShoulder
					{
						OFFSET -2.95074 1.18843 0.31430
CHANNELS 3 Zrotation Xrotation Yrotation
						JOINT RightElbow
						{
OFFSET 0 -4.474500 -0.000000
CHANNELS 3 Zrotation Xrotation Yrotation
							JOINT RightWrist
							{
OFFSET 0 -2.938960 -0.000000
CHANNELS 3 Zrotation Xrotation Yrotation
								JOINT rhand
								{
									OFFSET 0 0 0
CHANNELS 3 Zrotation Xrotation Yrotation
									JOINT RFingers
									{
OFFSET 0 -0.405090 -0.000000
CHANNELS 3 Zrotation Xrotation Yrotation
										End Site
										{
OFFSET 0 -0.326600 -0.000000
										}
									}
								}
								JOINT RThumb
								{
OFFSET 0 0.000000 0.000000
CHANNELS 3 Zrotation Xrotation Yrotation
									End Site
									{
OFFSET 0 -0.331580 0.331580
									}
								}
							}
						}
					}
				}
			}
		}
	}
}
MOTION
Frames: 5
Frame Time: 0.008333333333333333
0.391800 15.809700 -5.179700 -0.452200 0.927000 11.218700 0.000000 0.000000 0.000000 -20.226700 -15.001200 -11.526500 1.277300 7.162600 20.198100 0.542600 8.616900 -19.626700 0.048100 1.415300 3.892200 0.000000 0.000000 0.000000 20.412900 11.754900 -13.791800 -1.713800 -8.242600 23.453400 -0.714900 -9.047400 -21.715400 -0.043000 -1.338600 3.681000 0.408300 -1.056700 -9.063700 0.388100 -1.424500 -7.759500 0.083800 -0.723600 -2.980600 8.690800 3.651600 -14.599700 -5.545000 5.044500 39.518500 -3.136300 2.634600 17.330800 0.000000 -0.000000 0.000000 2.487800 22.271200 -25.081700 17.708700 -27.782600 4.412600 2.809600 19.917900 -12.618300 0.000000 0.000000 0.000000 -7.125000 0.000000 0.000000 -21.634000 41.562900 -1.935700 0.000000 -0.000000 0.000000 -1.585300 22.882400 21.016800 -15.454900 -24.775900 -3.414300 -8.675500 -9.004100 18.619700 0.000000 0.000000 0.000000 7.125000 0.000000 -0.000000 18.695700 47.883000 -1.375100
0.441673 15.801823 -5.189932 0.144567 -1.302715 10.580176 0.000000 0.000000 0.000000 -21.482992 -13.700651 -10.360045 1.150969 6.811850 19.159192 0.460160 9.700597 -19.799132 0.057907 1.552806 4.271266 0.000000 0.000000 0.000000 19.420984 12.374114 -13.678741 -1.840518 -8.525644 24.322274 -0.854279 -7.774996 -21.946789 -0.020886 -0.933089 2.564647 -0.216692 -0.953247 -8.639672 0.453810 -1.255327 -7.507589 0.516826 -0.612752 -2.932284 8.996060 3.663090 -14.024677 -5.404912 4.919009 39.566295 -3.157792 2.649119 17.204732 0.000000 0.000000 0.000000 2.357059 22.201654 -25.961786 18.730561 -29.082434 4.899172 2.508335 20.244608 -11.945853 0.000000 0.000000 0.000000 -7.125000 0.000000 0.000000 -21.663706 40.909587 -2.308507 0.000000 0.000000 0.000000 -7.176973 18.904741 23.655377 -15.269932 -24.520699 -3.337172 -3.481342 8.715398 13.734914 0.000000 0.000000 0.000000 7.125000 0.000000 0.000000 21.449967 42.668020 1.297878
0.501911 15.799930 -5.197074 -0.211273 -3.070399 10.402391 0.000000 0.000000 0.000000 -21.505812 -13.075491 -10.371855 1.193215 6.931349 19.512167 0.445010 10.598129 -20.558522 0.065834 1.655296 4.553987 0.000000 0.000000 0.000000 19.461936 12.874212 -13.527237 -1.810138 -8.458770 24.116510 -0.881052 -6.794498 -21.450928 -0.010840 -0.671956 1.846523 0.721799 -0.679332 -8.759007 0.400973 -0.952191 -7.441672 -0.047756 -0.503409 -2.816998 9.010047 3.464415 -13.669888 -5.065464 4.480606 40.044875 -3.107689 2.521374 17.321970 0.000000 0.000000 0.000000 2.919605 21.060077 -24.468877 19.378258 -29.885976 5.217964 3.232513 19.670921 -12.186599 0.000000 0.000000 0.000000 -7.125000 0.000000 0.000000 -21.134780 41.200689 -2.085661 0.000000 0.000000 0.000000 -10.750162 14.252070 21.730372 -14.633448 -23.633003 -3.077525 -7.127284 23.708838 8.224556 0.000000 0.000000 0.000000 7.125000 0.000000 0.000000 16.768604 37.759282 3.096074
0.545528 15.799537 -5.219259 0.060860 -4.222072 10.284211 0.000000 0.000000 0.000000 -22.086502 -12.609711 -10.103154 1.133359 6.761428 19.010438 0.388553 11.218827 -20.640959 0.077716 1.798280 4.948580 0.000000 0.000000 0.000000 18.871871 13.474056 -13.776720 -1.874846 -8.600402 24.553026 -0.897473 -6.338836 -21.276348 -0.008753 -0.604547 1.661324 0.715329 -0.553227 -8.377940 0.209329 -0.786622 -7.533607 -0.226844 -0.427312 -3.124905 8.772323 3.209756 -13.704926 -4.720630 3.993058 40.190392 -3.003077 2.326621 17.339244 0.000000 0.000000 0.000000 3.634800 19.313761 -21.924172 19.677896 -30.252279 5.368093 4.251951 19.500620 -12.584823 0.000000 0.000000 0.000000 -7.125000 0.000000 0.000000 -20.403260 41.669433 -1.757979 0.000000 0.000000 0.000000 -11.880720 10.118298 19.342616 -16.125545 -25.690044 -3.700489 -14.123290 6.748920 10.771866 0.000000 0.000000 0.000000 7.125000 0.000000 0.000000 11.437889 40.811269 1.199410
0.574937 15.803209 -5.243047 -0.060230 -4.426213 10.545728 0.000000 0.000000 0.000000 -22.000452 -12.546877 -10.488394 1.132333 6.758390 19.001449 0.389012 11.219216 -20.646352 0.083879 1.868323 5.141890 0.000000 0.000000 0.000000 18.790220 13.721995 -14.114179 -1.864038 -8.576936 24.480656 -0.883993 -6.292281 -21.118559 -0.009020 -0.613987 1.687195 0.792369 -0.639028 -8.176373 0.294691 -0.902103 -7.631107 -0.184275 -0.487808 -3.339859 8.518975 3.019812 -13.961339 -4.726613 3.734135 39.839873 -2.996501 2.166029 17.169485 0.000000 0.000000 0.000000 4.164560 17.589254 -19.612965 20.172685 -30.849896 5.619691 5.337528 19.127631 -12.849036 0.000000 0.000000 0.000000 -7.125000 0.000000 0.000000 -19.564471 42.022793 -1.500524 0.000000 0.000000 0.000000 -11.845764 7.642875 17.058128 -18.878130 -29.266513 -4.971384 -18.268606 -2.301496 11.000015 0.000000 0.000000 0.000000 7.125000 0.000000 0.000000 7.866961 41.419710 0.699473
